<svg xmlns="http://www.w3.org/2000/svg" xmlns:xlink="http://www.w3.org/1999/xlink" version="1.1" width="256" height="256" viewBox="0 0 256 256" xml:space="preserve">
<g style="stroke: none; stroke-width: 0; stroke-dasharray: none; stroke-linecap: butt; stroke-linejoin: miter; stroke-miterlimit: 10; fill: none; fill-rule: nonzero; opacity: 1;" transform="translate(1.4065934065934016 1.4065934065934016) scale(2.81 2.81)">
	<path d="M 65.932 13.414 c -12.748 0 -23.119 10.371 -23.119 23.119 c 0 12.748 10.371 23.119 23.119 23.119 c 12.747 0 23.118 -10.371 23.118 -23.119 C 89.05 23.785 78.679 13.414 65.932 13.414 z M 57.616 47.089 c -0.394 0.369 -0.895 0.55 -1.395 0.55 c -0.546 0 -1.093 -0.218 -1.495 -0.65 c -2.667 -2.856 -4.135 -6.57 -4.135 -10.457 c 0 -8.459 6.881 -15.341 15.341 -15.341 c 1.255 0 2.505 0.153 3.714 0.453 c 1.097 0.273 1.764 1.383 1.491 2.479 c -0.272 1.096 -1.385 1.76 -2.478 1.491 c -0.887 -0.221 -1.805 -0.333 -2.728 -0.333 c -6.203 0 -11.25 5.047 -11.25 11.25 c 0 2.847 1.078 5.57 3.034 7.666 C 58.487 45.024 58.442 46.318 57.616 47.089 z M 76.753 28.603 l -5.33 5.207 c 0.409 0.822 0.645 1.744 0.645 2.722 c 0 3.384 -2.753 6.136 -6.136 6.136 c -3.384 0 -6.136 -2.753 -6.136 -6.136 s 2.753 -6.136 6.136 -6.136 c 0.912 0 1.776 0.206 2.555 0.564 l 5.409 -5.283 c 0.808 -0.789 2.104 -0.774 2.892 0.034 C 77.576 26.519 77.561 27.814 76.753 28.603 z" style="stroke: none; stroke-width: 1; stroke-dasharray: none; stroke-linecap: butt; stroke-linejoin: miter; stroke-miterlimit: 10; fill: rgb(0,182,242); fill-rule: nonzero; opacity: 1;" transform=" matrix(1 0 0 1 0 0) " stroke-linecap="round"/>
	<path d="M 65.931 64.658 c -15.533 0 -28.125 -12.592 -28.125 -28.125 c 0 -11.153 6.493 -20.79 15.904 -25.338 C 48.702 4.458 44.841 0 44.841 0 S 13.46 36.214 13.46 58.601 C 13.46 75.915 27.545 90 44.858 90 c 15.886 0 29.045 -11.862 31.108 -27.193 C 72.848 63.999 69.468 64.658 65.931 64.658 z M 47.076 81.464 c -13.626 0 -24.711 -11.085 -24.711 -24.71 c 0 -1.13 0.916 -2.045 2.045 -2.045 c 1.13 0 2.045 0.916 2.045 2.045 c 0 11.37 9.25 20.619 20.62 20.619 c 1.13 0 2.045 0.916 2.045 2.045 S 48.206 81.464 47.076 81.464 z" style="stroke: none; stroke-width: 1; stroke-dasharray: none; stroke-linecap: butt; stroke-linejoin: miter; stroke-miterlimit: 10; fill: rgb(0,182,242); fill-rule: nonzero; opacity: 1;" transform=" matrix(1 0 0 1 0 0) " stroke-linecap="round"/>
</g>
</svg>