<svg xmlns="http://www.w3.org/2000/svg" xmlns:xlink="http://www.w3.org/1999/xlink" version="1.1" width="256" height="256" viewBox="0 0 256 256" xml:space="preserve">
<g style="stroke: none; stroke-width: 0; stroke-dasharray: none; stroke-linecap: butt; stroke-linejoin: miter; stroke-miterlimit: 10; fill: none; fill-rule: nonzero; opacity: 1;" transform="translate(1.4065934065934016 1.4065934065934016) scale(2.81 2.81)">
	<path d="M 69.138 53.642 c -8.853 0 -16.913 -2.576 -24.374 -4.962 c -13.188 -4.215 -24.578 -7.857 -38.84 0.625 c -1.862 1.107 -4.265 0.494 -5.372 -1.366 c -1.106 -1.86 -0.494 -4.265 1.366 -5.371 c 17.296 -10.284 31.498 -5.743 45.234 -1.353 c 12.083 3.862 23.502 7.513 37.29 1.162 c 1.969 -0.904 4.296 -0.045 5.199 1.921 c 0.906 1.966 0.046 4.294 -1.92 5.199 C 81.146 52.524 74.969 53.642 69.138 53.642 z" style="stroke: none; stroke-width: 1; stroke-dasharray: none; stroke-linecap: butt; stroke-linejoin: miter; stroke-miterlimit: 10; fill: rgb(0,182,242); fill-rule: nonzero; opacity: 1;" transform=" matrix(1 0 0 1 0 0) " stroke-linecap="round"/>
	<path d="M 69.138 31.696 c -8.853 0 -16.913 -2.577 -24.374 -4.962 c -13.188 -4.217 -24.578 -7.859 -38.84 0.625 c -1.862 1.106 -4.265 0.494 -5.372 -1.366 c -1.106 -1.861 -0.494 -4.266 1.366 -5.372 c 17.296 -10.284 31.498 -5.743 45.234 -1.353 c 12.083 3.862 23.502 7.513 37.29 1.162 c 1.969 -0.904 4.296 -0.044 5.199 1.921 c 0.906 1.966 0.046 4.294 -1.92 5.2 C 81.146 30.577 74.969 31.695 69.138 31.696 z" style="stroke: none; stroke-width: 1; stroke-dasharray: none; stroke-linecap: butt; stroke-linejoin: miter; stroke-miterlimit: 10; fill: rgb(0,182,242); fill-rule: nonzero; opacity: 1;" transform=" matrix(1 0 0 1 0 0) " stroke-linecap="round"/>
	<path d="M 69.138 75.589 c -8.853 0.002 -16.913 -2.576 -24.374 -4.962 c -13.188 -4.215 -24.578 -7.857 -38.84 0.625 c -1.862 1.107 -4.265 0.494 -5.372 -1.366 c -1.106 -1.86 -0.494 -4.265 1.366 -5.37 c 17.296 -10.288 31.498 -5.744 45.233 -1.355 c 12.086 3.866 23.505 7.515 37.291 1.163 c 1.969 -0.908 4.296 -0.044 5.199 1.92 c 0.906 1.966 0.046 4.294 -1.92 5.199 C 81.146 74.471 74.969 75.589 69.138 75.589 z" style="stroke: none; stroke-width: 1; stroke-dasharray: none; stroke-linecap: butt; stroke-linejoin: miter; stroke-miterlimit: 10; fill: rgb(0,182,242); fill-rule: nonzero; opacity: 1;" transform=" matrix(1 0 0 1 0 0) " stroke-linecap="round"/>
</g>
</svg>